<svg width="6047" height="1752" viewBox="0 0 6047 1752" fill="none" xmlns="http://www.w3.org/2000/svg">
<path d="M135.5 262.248H309.75V298.498H171.75V590.998H135.5V262.248ZM305 298.498V262.248H617.25V298.498H305ZM612.5 298.498V262.248H924.75V298.498H612.5ZM1082.75 543.498C1056.58 505.831 1037.67 468.248 1026 430.748C1014.33 393.248 1008.5 351.165 1008.5 304.498C1008.5 257.998 1014.33 216.081 1026 178.748C1037.67 141.248 1056.58 103.748 1082.75 66.248H1153C1126.67 104.248 1107.5 142.081 1095.5 179.748C1083.67 217.415 1077.75 259.081 1077.75 304.748C1077.75 350.248 1083.67 391.748 1095.5 429.248C1107.33 466.581 1126.5 504.665 1153 543.498H1082.75ZM4586.25 543.498C4612.92 504.498 4632.08 466.415 4643.75 429.248C4655.58 391.915 4661.5 350.415 4661.5 304.748C4661.5 258.915 4655.5 217.165 4643.5 179.498C4631.5 141.665 4612.42 103.915 4586.25 66.248H4656.5C4682.83 104.081 4701.75 141.748 4713.25 179.248C4724.92 216.748 4730.75 258.498 4730.75 304.498C4730.75 350.831 4724.92 392.748 4713.25 430.248C4701.75 467.748 4682.83 505.498 4656.5 543.498H4586.25ZM4898 334.998V273.998H5043V334.998H4898ZM5217.75 543.498V66.248H5368.25V113.748H5284.25V495.748H5368.25V543.498H5217.75ZM5803 543.498V495.748H5887V113.748H5803V66.248H5953.5V543.498H5803ZM135.5 1171H171.75V1422.25H309.75V1458.5H135.5V1171ZM305 1458.5V1422.25H617.25V1458.5H305Z" fill="#87CEEB"/>
<path d="M1334 166.748V318.498C1334 341.498 1337.67 359.165 1345 371.498C1352.5 383.665 1363.17 389.748 1377 389.748C1392 389.748 1404.33 382.415 1414 367.748C1423.83 352.915 1428.75 334.248 1428.75 311.748V166.748H1499V376.748C1499 399.748 1499.67 419.915 1501 437.248H1434C1432 413.248 1431 395.331 1431 383.498H1429.75C1411.92 422.665 1384.58 442.248 1347.75 442.248C1320.42 442.248 1299.58 433.581 1285.25 416.248C1270.92 398.748 1263.75 372.831 1263.75 338.498V166.748H1334ZM1662.75 437.248V272.748C1662.75 247.915 1661.17 230.665 1658 220.998C1655 211.331 1649.33 206.498 1641 206.498C1632.5 206.498 1625.75 214.331 1620.75 229.998C1615.92 245.665 1613.5 266.248 1613.5 291.748V437.248H1556.25V224.498C1556.25 192.998 1555.75 173.748 1554.75 166.748H1607L1608.5 198.498V210.498H1609C1614.67 193.498 1621.83 181.165 1630.5 173.498C1639.17 165.665 1650 161.748 1663 161.748C1677.67 161.748 1688.58 165.748 1695.75 173.748C1703.08 181.748 1708.33 194.081 1711.5 210.748H1712C1718.67 193.081 1726.58 180.498 1735.75 172.998C1745.08 165.498 1756.83 161.748 1771 161.748C1790.67 161.748 1804.75 168.915 1813.25 183.248C1821.75 197.581 1826 222.165 1826 256.998V437.248H1769V272.748C1769 247.915 1767.42 230.665 1764.25 220.998C1761.25 211.331 1755.58 206.498 1747.25 206.498C1738.75 206.498 1732 213.248 1727 226.748C1722.17 240.081 1719.75 260.165 1719.75 286.998V437.248H1662.75ZM1954.75 442.248C1928.58 442.248 1908.17 435.165 1893.5 420.998C1878.83 406.665 1871.5 386.581 1871.5 360.748C1871.5 332.748 1880.17 311.498 1897.5 296.998C1915 282.331 1941.08 274.748 1975.75 274.248L2031.5 273.248V259.498C2031.5 242.331 2028.58 229.331 2022.75 220.498C2016.92 211.665 2007.5 207.248 1994.5 207.248C1982.33 207.248 1973.33 210.331 1967.5 216.498C1961.83 222.498 1958.33 232.165 1957 245.498L1883.75 241.998C1892.75 188.498 1930.67 161.748 1997.5 161.748C2031.17 161.748 2056.92 169.998 2074.75 186.498C2092.75 202.998 2101.75 227.248 2101.75 259.248V357.248C2101.75 372.415 2103.42 382.915 2106.75 388.748C2110.25 394.415 2116 397.248 2124 397.248C2129.33 397.248 2134.5 396.748 2139.5 395.748V433.748C2135.33 434.748 2131.58 435.665 2128.25 436.498C2124.92 437.331 2121.58 437.998 2118.25 438.498C2114.92 438.998 2111.33 439.415 2107.5 439.748C2103.83 440.081 2099.5 440.248 2094.5 440.248C2076.83 440.248 2063.75 435.915 2055.25 427.248C2046.92 418.581 2041.92 405.831 2040.25 388.998H2038.75C2028.25 407.831 2016.25 421.415 2002.75 429.748C1989.42 438.081 1973.42 442.248 1954.75 442.248ZM2031.5 311.998L1998 312.498C1983 312.831 1972.08 314.415 1965.25 317.248C1958.58 319.915 1953.5 324.331 1950 330.498C1946.5 336.498 1944.75 344.748 1944.75 355.248C1944.75 380.581 1954.75 393.248 1974.75 393.248C1990.92 393.248 2004.42 386.915 2015.25 374.248C2026.08 361.415 2031.5 345.248 2031.5 325.748V311.998ZM2351 389.748H2439.25V437.248H2182V389.748H2280.75V214.248H2208.25V166.748H2351V389.748ZM2280.75 117.998V66.248H2351V117.998H2280.75ZM2730.25 225.248C2711.58 222.081 2693.92 220.498 2677.25 220.498C2651.25 220.498 2630.58 230.331 2615.25 249.998C2600.08 269.665 2592.5 295.581 2592.5 327.748V437.248H2522.5V261.998C2522.5 249.331 2521.33 234.415 2519 217.248C2516.83 200.081 2513.67 183.248 2509.5 166.748H2577.25C2583.25 188.415 2587.08 207.415 2588.75 223.748H2589.75C2598.08 201.081 2609.33 185.081 2623.5 175.748C2637.67 166.415 2656.08 161.748 2678.75 161.748C2696.08 161.748 2713.25 163.165 2730.25 165.998V225.248ZM2782.86 269.312C2782.52 264.875 2782.18 260.608 2781.84 256.512C2781.84 252.075 2781.84 247.808 2781.84 243.712C2781.84 210.261 2787.98 178.859 2800.27 149.504C2812.56 120.149 2829.79 94.3787 2851.98 72.192C2874.17 49.664 2899.77 32.0854 2928.78 19.456C2958.13 6.48536 2989.71 3.05176e-05 3023.5 3.05176e-05C3056.27 3.05176e-05 3087.5 6.14403 3117.2 18.432C3146.89 30.72 3173.17 48.4694 3196.04 71.68C3219.25 94.8907 3237.17 122.88 3249.8 155.648H3191.95C3176.25 123.904 3153.38 98.816 3123.34 80.384C3093.64 61.6107 3060.36 52.224 3023.5 52.224C2999.61 52.224 2976.91 56.4907 2955.4 65.024C2934.24 73.216 2914.96 84.8214 2897.55 99.84C2880.48 114.517 2866.49 132.096 2855.56 152.576C2844.64 172.715 2837.81 194.901 2835.08 219.136L2896.52 218.112V269.312H2782.86ZM3023.5 485.376C2991.07 485.376 2960.01 479.232 2930.32 466.944C2900.62 454.997 2874.17 437.419 2850.96 414.208C2827.75 390.997 2809.65 362.837 2796.68 329.728H2854.54C2865.12 351.232 2879.12 369.835 2896.52 385.536C2913.93 400.896 2933.56 412.843 2955.4 421.376C2977.25 429.909 2999.95 434.176 3023.5 434.176C3047.73 434.176 3070.6 429.909 3092.11 421.376C3113.61 412.843 3132.9 401.067 3149.96 386.048C3167.03 370.688 3180.85 353.109 3191.44 333.312C3202.36 313.515 3209.19 292.181 3211.92 269.312L3132.04 271.36V218.112H3264.14C3264.82 222.208 3265.33 226.304 3265.68 230.4C3266.02 234.155 3266.19 237.909 3266.19 241.664C3266.19 275.115 3259.87 306.688 3247.24 336.384C3234.96 365.739 3217.72 391.68 3195.53 414.208C3173.69 436.395 3148.09 453.803 3118.73 466.432C3089.38 479.061 3057.63 485.376 3023.5 485.376ZM2918.03 329.728V155.648H2970.25V209.92L3046.03 155.648H3130L3053.2 209.92L3125.9 329.728H3066.51L3013.26 239.616L2970.25 270.848V329.728H2918.03ZM3549.75 225.248C3531.08 222.081 3513.42 220.498 3496.75 220.498C3470.75 220.498 3450.08 230.331 3434.75 249.998C3419.58 269.665 3412 295.581 3412 327.748V437.248H3342V261.998C3342 249.331 3340.83 234.415 3338.5 217.248C3336.33 200.081 3333.17 183.248 3329 166.748H3396.75C3402.75 188.415 3406.58 207.415 3408.25 223.748H3409.25C3417.58 201.081 3428.83 185.081 3443 175.748C3457.17 166.415 3475.58 161.748 3498.25 161.748C3515.58 161.748 3532.75 163.165 3549.75 165.998V225.248ZM3871.25 301.748C3871.25 346.581 3859.92 381.248 3837.25 405.748C3814.58 430.081 3782 442.248 3739.5 442.248C3698.5 442.248 3666.67 430.081 3644 405.748C3621.33 381.248 3610 346.581 3610 301.748C3610 257.081 3621.25 222.581 3643.75 198.248C3666.25 173.915 3698.67 161.748 3741 161.748C3827.83 161.748 3871.25 208.415 3871.25 301.748ZM3797.75 301.748C3797.75 269.748 3793.5 246.498 3785 231.998C3776.5 217.331 3762.17 209.998 3742 209.998C3721.33 209.998 3706.42 217.331 3697.25 231.998C3688.25 246.665 3683.75 269.915 3683.75 301.748C3683.75 333.915 3688.33 357.415 3697.5 372.248C3706.83 386.915 3720.58 394.248 3738.75 394.248C3759.42 394.248 3774.42 386.998 3783.75 372.498C3793.08 357.831 3797.75 334.248 3797.75 301.748ZM4178.75 301.748C4178.75 346.581 4167.42 381.248 4144.75 405.748C4122.08 430.081 4089.5 442.248 4047 442.248C4006 442.248 3974.17 430.081 3951.5 405.748C3928.83 381.248 3917.5 346.581 3917.5 301.748C3917.5 257.081 3928.75 222.581 3951.25 198.248C3973.75 173.915 4006.17 161.748 4048.5 161.748C4135.33 161.748 4178.75 208.415 4178.75 301.748ZM4105.25 301.748C4105.25 269.748 4101 246.498 4092.5 231.998C4084 217.331 4069.67 209.998 4049.5 209.998C4028.83 209.998 4013.92 217.331 4004.75 231.998C3995.75 246.665 3991.25 269.915 3991.25 301.748C3991.25 333.915 3995.83 357.415 4005 372.248C4014.33 386.915 4028.08 394.248 4046.25 394.248C4066.92 394.248 4081.92 386.998 4091.25 372.498C4100.58 357.831 4105.25 334.248 4105.25 301.748ZM4284 214.248H4242.25V166.748H4287.5L4309.5 96.248H4353.5V166.748H4449.75V214.248H4353.5V346.748C4353.5 361.415 4354.83 371.331 4357.5 376.498C4360.33 381.498 4364.83 385.498 4371 388.498C4377.17 391.331 4385.83 392.748 4397 392.748C4417.67 392.748 4438.92 390.498 4460.75 385.998V432.498C4437.08 436.331 4420.33 438.581 4410.5 439.248C4400.67 440.081 4390.42 440.498 4379.75 440.498C4358.58 440.498 4340.83 437.665 4326.5 431.998C4312.33 426.165 4301.58 417.165 4294.25 404.998C4287.08 392.665 4283.5 375.415 4283.5 353.248L4284 214.248ZM852.75 1388.5L835.5 1469.5H894.75V1506.75H827.25L807.75 1597.25H769L788.75 1506.75H711.5L692 1597.25H653.75L673.25 1506.75H629.75V1469.5H681.25L698.75 1388.5H642V1351.5H706.75L726.5 1260H764.75L745.25 1351.5H822.25L842 1260H880.25L860.75 1351.5H907V1388.5H852.75ZM737 1388.5L719.5 1469.5H796.75L814.25 1388.5H737Z" fill="#FF0000"/>
<path d="M5648.5 308.248C5636 308.248 5623.67 306.498 5611.5 302.998C5599.5 299.498 5587.25 295.581 5574.75 291.248C5552.25 283.415 5533.83 279.498 5519.5 279.498C5507.67 279.498 5496.75 281.331 5486.75 284.998C5476.92 288.498 5466.58 293.998 5455.75 301.498V248.248C5474.58 234.248 5497.17 227.248 5523.5 227.248C5541 227.248 5561.17 231.165 5584 238.998C5606 246.665 5621.17 251.498 5629.5 253.498C5637.83 255.498 5645.75 256.498 5653.25 256.498C5675.58 256.498 5696.25 248.831 5715.25 233.498V288.248C5704.58 295.581 5694.33 300.748 5684.5 303.748C5674.83 306.748 5662.83 308.248 5648.5 308.248Z" fill="#BBC34B"/>
<rect x="133" y="540.248" width="40" height="682" fill="#87CEEB"/>
</svg>
