<?xml version="1.0" encoding="UTF-8"?>
<svg version="1.1" xmlns="http://www.w3.org/2000/svg" width="225" height="225">
<path d="M0 0 C74.25 0 148.5 0 225 0 C225 74.25 225 148.5 225 225 C150.75 225 76.5 225 0 225 C0 150.75 0 76.5 0 0 Z " transform="translate(0,0)"/>
<path d="M0 0 C16.52282326 6.74693566 28.97164979 3.78623469 45.31860352 -2.51269531 C55.82813846 -6.52215224 66.86275831 -6.75807053 77.44750977 -2.80957031 C86.31594705 1.6366327 92.01349824 8.9155978 96.33813477 17.63964844 C96.81637695 18.56261719 97.29461914 19.48558594 97.78735352 20.43652344 C106.16753997 38.12069642 109.72149377 58.472104 112.99462891 77.65405273 C113.27621756 79.28174325 113.59325504 80.90326428 113.92016602 82.52246094 C115.56670068 94.80222417 116.51321094 110.48687929 110.33813477 121.63964844 C106.74726666 125.88799943 103.0850589 129.10327893 97.42797852 129.91308594 C85.82557367 130.46056784 77.97478122 123.12466669 69.79516602 115.84277344 C66.5996663 112.92894391 63.59222422 109.87496453 60.58813477 106.76464844 C53.41720386 99.47805736 46.45723824 95.19787773 36.33813477 93.63964844 C35.23949097 93.3884021 35.23949097 93.3884021 34.11865234 93.13208008 C29.07469338 92.23879136 23.96804037 92.41429865 18.85766602 92.39941406 C16.87186604 92.38981155 14.88620783 92.35866547 12.90063477 92.32714844 C-2.05078895 92.26734274 -13.25611559 94.53683105 -24.20825195 105.13623047 C-26.40729995 107.3285924 -28.5810266 109.54459928 -30.74682617 111.76977539 C-38.86948845 120.03584965 -48.4506819 128.66544025 -60.34936523 130.07714844 C-66.63381661 129.24712656 -70.15254817 126.50120618 -74.26733398 121.94433594 C-78.50886418 114.93452412 -79.15506903 107.80387329 -79.03686523 99.76464844 C-79.02743896 98.75869629 -79.0180127 97.75274414 -79.00830078 96.71630859 C-78.81877569 87.15246451 -77.60221528 77.99263663 -75.66186523 68.63964844 C-75.50089355 67.83946289 -75.33992188 67.03927734 -75.17407227 66.21484375 C-63.77288914 10.73127629 -63.77288914 10.73127629 -46.42749023 -0.85253906 C-32.14875564 -9.11180711 -14.56376379 -6.09906104 0 0 Z " fill="#323232" transform="translate(93.661865234375,47.3603515625)"/>
<path d="M0 0 C6.64515858 3.80497661 12.39882522 9.65208214 14.6875 17.0625 C15.72787158 26.2927734 14.73861057 34.47476128 9.21484375 42.09375 C4.18332368 47.70811755 -1.85918976 50.43891891 -9.26953125 51.4765625 C-17.66922877 51.88630384 -24.01912205 49.78882803 -30.3828125 44.265625 C-36.1667177 38.21551496 -38.35787786 31.90145437 -38.8125 23.625 C-38.57803231 16.63981681 -36.10778236 11.16771952 -31.4453125 5.98828125 C-22.61983914 -2.20189539 -11.3381291 -5.0566656 0 0 Z " fill="#F9F9F9" transform="translate(83.3125,68.9375)"/>
<path d="M0 0 C3.46236126 2.39067801 5.74528805 5.0530761 7.625 8.8125 C8.25096915 14.42569879 8.23628432 19.54287581 5.015625 24.33984375 C1.37023605 28.20026969 -3.25131061 30.00079622 -8.5 30.3125 C-14.13589095 29.58528826 -16.98523972 27.39006572 -20.6875 23.1875 C-23.98748912 18.54307087 -24.12050446 14.40797165 -23.375 8.8125 C-21.70063146 5.06080287 -19.23140583 2.57103088 -16.1875 -0.125 C-10.76505329 -2.17347987 -5.42453258 -1.90863183 0 0 Z " fill="#323232" transform="translate(79.375,79.1875)"/>
<path d="M0 0 C4.99268902 1.47931526 4.99268902 1.47931526 6.375 4 C6.76809578 7.09562931 6.99838668 9.04336605 6.375 12 C4.3125 14.5625 4.3125 14.5625 1.375 16 C-2.4387751 16 -4.64924548 15.84985071 -7.5625 13.3125 C-8.9863395 10.2135552 -9.17653827 8.37817188 -8.625 5 C-5.91953265 1.14675862 -4.77773264 0 0 0 Z " fill="#F6F6F6" transform="translate(175.625,83)"/>
<path d="M0 0 C4.99268902 1.47931526 4.99268902 1.47931526 6.375 4 C6.76774738 7.09288558 7.01077985 9.04689172 6.375 12 C3.98554251 14.73080856 2.40166021 15.76900145 -1.125 16.5625 C-4.86496182 15.72100859 -6.33353575 14.01163873 -8.625 11 C-9.25 8 -9.25 8 -8.625 5 C-5.91953265 1.14675862 -4.77773264 0 0 0 Z " fill="#F6F6F6" transform="translate(160.625,98)"/>
<path d="M0 0 C2.4375 1.5625 2.4375 1.5625 4 4 C4.56288002 7.94016013 4.60396028 10.05782196 2.4375 13.4375 C-0.94217804 15.60396028 -3.05983987 15.56288002 -7 15 C-9.4375 13.4375 -9.4375 13.4375 -11 11 C-11.56288002 7.05983987 -11.60396028 4.94217804 -9.4375 1.5625 C-6.05782196 -0.60396028 -3.94016013 -0.56288002 0 0 Z " fill="#F8F8F8" transform="translate(149,84)"/>
<path d="M0 0 C3.36344489 2.48602449 4.80057749 3.91425523 5.5625 8.0625 C5 11 5 11 3.5 13.375 C-0.24099229 15.80664499 -2.57426418 15.49174842 -7 15 C-9 14 -9 14 -10 12 C-10.75912409 5.16788321 -10.75912409 5.16788321 -8.375 1.5 C-5.23686002 -0.48198314 -3.65126535 -0.67064058 0 0 Z " fill="#F8F8F8" transform="translate(163,69)"/>
</svg>
