<svg width="127" height="100" viewBox="0 0 127 100" fill="none" xmlns="http://www.w3.org/2000/svg">
<path d="M109.003 57.3852C104.576 57.4115 100.742 58.5311 97.527 60.198C96.3398 57.724 95.1526 55.5623 94.955 53.948C94.7324 52.073 94.4603 50.9269 94.7324 48.6876C95.0042 46.4477 96.2409 43.2707 96.2409 43.0102C96.2159 42.7759 95.9686 41.63 93.4213 41.604C90.874 41.578 88.6725 42.1248 88.4252 42.828C88.1778 43.5311 87.6832 45.1457 87.3616 46.8123C86.9164 49.2602 82.2666 57.9321 79.6201 62.4894C78.7545 60.7186 78.0125 59.1561 77.8638 57.9058C77.6415 56.0311 77.3692 54.885 77.6415 52.6457C77.9135 50.4058 79.1502 47.229 79.1502 46.9686C79.1255 46.7342 78.8781 45.5884 76.3309 45.5623C73.7831 45.5363 71.5821 46.0832 71.3348 46.7863C71.0874 47.4894 70.8154 49.1561 70.2712 50.7707C69.7516 52.3852 63.5683 66.8644 61.9606 70.6404C61.1444 72.5675 60.4274 74.104 59.9078 75.1457C59.3884 76.1873 59.883 75.2238 59.8336 75.3279C59.3884 76.2134 59.141 76.7082 59.141 76.7082V76.7345C58.7948 77.3855 58.4238 78.0102 58.2504 78.0102C58.1267 78.0102 57.8794 76.2654 58.2998 73.8699C59.215 68.8436 61.441 61.0053 61.4165 60.7188C61.4165 60.5886 61.8367 59.2082 59.9817 58.5053C58.1762 57.8022 57.5334 58.974 57.3847 58.974C57.2363 58.974 57.1127 59.3907 57.1127 59.3907C57.1127 59.3907 59.116 50.5628 53.279 50.5628C49.6185 50.5628 44.5729 54.7556 42.0748 58.5837C40.4919 59.4951 37.1282 61.422 33.5666 63.4795C32.2063 64.2608 30.7965 65.0941 29.4609 65.8493L29.1891 65.5363C22.1154 57.5936 9.0315 51.9686 9.57563 41.2915C9.7735 37.4113 11.0596 27.1769 34.7048 14.7811C54.071 4.62484 69.5787 7.4113 72.2744 13.6092C76.108 22.4634 63.9887 38.9217 43.8561 41.2915C36.1888 42.203 32.1571 39.078 31.1433 37.9061C30.0797 36.6821 29.9313 36.63 29.5356 36.8644C28.8925 37.229 29.2883 38.3227 29.5356 38.9738C30.1292 40.6144 32.6025 43.5311 36.8072 44.9894C40.4922 46.2655 49.4953 46.9686 60.3779 42.5415C72.5714 37.5675 82.0937 23.7655 79.2989 12.229C76.4545 0.484217 57.9541 -3.36995 40.4677 3.16651C30.0547 7.07276 18.7764 13.1665 10.6639 21.1613C1.01794 30.6405 -0.515523 38.9217 0.127541 42.3592C2.37851 54.6248 18.4301 62.6196 24.8608 68.5311C24.5392 68.7131 24.2424 68.8954 23.9704 69.0519C20.7551 70.7183 8.5121 77.4634 5.44518 84.5985C1.98253 92.6714 5.98932 98.479 8.66051 99.2602C16.9214 101.682 25.3802 97.3332 29.9558 90.1717C34.5065 83.0102 33.9626 73.7134 31.8603 69.4686L31.7858 69.3123L34.3086 67.7498C35.9413 66.7342 37.5489 65.7967 38.9585 64.9891C38.1672 67.2548 37.5981 69.9371 37.3016 73.8433C36.9553 78.4269 38.7361 84.3641 41.0858 86.7079C42.1246 87.7233 43.3612 87.7496 44.128 87.7496C46.8486 87.7496 48.0853 85.3795 49.4456 82.5412C51.1275 79.0777 52.6115 75.0673 52.6115 75.0673C52.6115 75.0673 50.7565 85.9266 55.8268 85.9266C57.6818 85.9266 59.5368 83.4006 60.3777 82.0985V82.1246C60.3777 82.1246 60.4272 82.0464 60.5261 81.8641C60.6299 81.7026 60.7288 81.5377 60.8229 81.3696V81.3175C61.5649 79.9634 63.222 76.8644 65.6953 71.7342C68.8857 65.1196 71.9528 56.8384 71.9528 56.8384C71.9528 56.8384 72.2496 58.8696 73.1648 62.2029C73.7086 64.1824 74.8958 66.3436 75.811 68.4529C75.069 69.5467 74.6238 70.172 74.6238 70.172L74.6485 70.198C74.0552 71.0313 73.3871 71.917 72.6948 72.8022C70.172 75.9792 67.1546 79.5993 66.7589 80.641C66.2889 81.8647 66.3879 82.7761 67.303 83.5056C67.9708 84.0264 69.158 84.1303 70.4194 84.0264C72.6948 83.8699 74.2778 83.2712 75.0692 82.9063C76.3059 82.4376 77.7157 81.7345 79.076 80.6928C81.5493 78.766 83.0581 76.0316 82.9097 72.3858C82.8355 70.3806 82.2171 68.4014 81.4504 66.5264C81.673 66.1878 81.8958 65.849 82.1182 65.4847C86.026 59.4688 89.0435 52.8545 89.0435 52.8545C89.0435 52.8545 89.3403 54.8858 90.2554 58.2191C90.7251 59.9118 91.6652 61.761 92.5061 63.5839C88.8456 66.735 86.5454 70.3808 85.754 72.7766C84.2947 77.2037 85.4324 79.2089 87.5842 79.6777C88.5486 79.886 89.9339 79.4173 90.9724 78.9485C92.2586 78.5058 93.8168 77.7503 95.2515 76.6308C97.7249 74.7037 100.099 72.0214 99.9756 68.4016C99.9014 66.735 99.4809 65.0944 98.9121 63.5319C102.028 62.1777 106.06 61.3964 111.18 62.0475C122.186 63.4016 124.363 70.6412 123.942 73.6621C123.522 76.6832 121.222 78.3496 120.455 78.8704C119.688 79.3652 119.441 79.5477 119.515 79.9121C119.614 80.4592 119.96 80.4329 120.628 80.329C121.543 80.1725 126.415 77.855 126.613 72.2824C126.91 65.1199 120.455 57.3074 109.003 57.3852ZM24.1188 87.5154C20.483 91.7082 15.3632 93.2967 13.1867 91.9425C10.837 90.5102 11.7519 84.3384 16.2289 79.8852C18.9495 77.1769 22.4864 74.6769 24.8113 73.1404C25.3307 72.8019 26.1222 72.3074 27.062 71.7082C27.2104 71.6043 27.3094 71.5519 27.3094 71.5519C27.4825 71.4477 27.6804 71.3175 27.8782 71.1873C29.5353 77.5415 27.9524 83.1144 24.1188 87.5154ZM50.707 68.479C49.4456 71.7342 46.7744 80.0936 45.1667 79.6248C43.7814 79.2342 42.9408 72.9061 44.8944 66.6561C45.8838 63.5048 47.9861 59.755 49.2228 58.2964C51.2264 55.9527 53.4027 55.1714 53.947 56.135C54.5901 57.3852 51.4985 66.4477 50.707 68.479ZM72.6454 79.5207C72.1012 79.8074 71.6066 80.0154 71.384 79.8595C71.2108 79.7553 71.6063 79.3647 71.6063 79.3647C71.6063 79.3647 74.3517 76.2657 75.44 74.8334C76.0583 74.0004 76.8003 73.0368 77.5918 71.9428V72.2553C77.592 76.005 74.1788 78.505 72.6454 79.5207ZM89.5626 75.4582C89.1669 75.1457 89.2166 74.1821 90.552 71.1613C91.0716 69.9634 92.2586 67.9582 94.3114 66.0571C94.5588 66.8384 94.7074 67.5933 94.6824 68.2967C94.6579 72.9842 91.4921 74.729 89.5626 75.4582Z" fill="#CF649A"/>
</svg>
